<svg xmlns="http://www.w3.org/2000/svg" viewBox="0 0 1200 900" role="img" aria-label="Dubai skyline illustration">
  <defs>
    <linearGradient id="sky" x1="0" x2="0" y1="0" y2="1">
      <stop offset="0%" stop-color="#0f172a"/>
      <stop offset="28%" stop-color="#1d4ed8"/>
      <stop offset="100%" stop-color="#7dd3fc"/>
    </linearGradient>
  </defs>
  <rect width="1200" height="900" fill="url(#sky)"/>
  <circle cx="930" cy="150" r="86" fill="#ffd166"/>
  <g fill="#ffffff" opacity="0.8">
    <ellipse cx="180" cy="140" rx="130" ry="56"/>
    <ellipse cx="320" cy="170" rx="110" ry="44"/>
    <ellipse cx="780" cy="150" rx="120" ry="50"/>
  </g>
  <g fill="#0f172a">
    <rect x="0" y="620" width="130" height="280"/>
    <rect x="130" y="660" width="110" height="240"/>
    <rect x="220" y="570" width="90" height="330"/>
    <rect x="300" y="610" width="120" height="290"/>
    <rect x="430" y="650" width="100" height="250"/>
    <rect x="530" y="680" width="80" height="220"/>
    <rect x="620" y="600" width="120" height="300"/>
    <rect x="760" y="620" width="90" height="280"/>
    <rect x="850" y="550" width="140" height="350"/>
    <rect x="1000" y="640" width="200" height="260"/>
  </g>
  <g fill="#fef3c7" opacity="0.8">
    <rect x="20" y="660" width="14" height="18"/>
    <rect x="52" y="660" width="14" height="18"/>
    <rect x="84" y="660" width="14" height="18"/>
    <rect x="150" y="700" width="14" height="18"/>
    <rect x="182" y="700" width="14" height="18"/>
    <rect x="246" y="620" width="14" height="18"/>
    <rect x="278" y="620" width="14" height="18"/>
    <rect x="334" y="650" width="14" height="18"/>
    <rect x="366" y="650" width="14" height="18"/>
    <rect x="452" y="690" width="14" height="18"/>
    <rect x="484" y="690" width="14" height="18"/>
    <rect x="644" y="640" width="14" height="18"/>
    <rect x="676" y="640" width="14" height="18"/>
    <rect x="872" y="590" width="14" height="18"/>
    <rect x="904" y="590" width="14" height="18"/>
    <rect x="1040" y="700" width="14" height="18"/>
    <rect x="1072" y="700" width="14" height="18"/>
  </g>
  <rect x="0" y="780" width="1200" height="120" fill="#111827"/>
  <g fill="#374151">
    <rect x="0" y="760" width="80" height="120"/>
    <rect x="120" y="760" width="80" height="120"/>
    <rect x="240" y="760" width="80" height="120"/>
    <rect x="360" y="760" width="80" height="120"/>
    <rect x="480" y="760" width="80" height="120"/>
    <rect x="600" y="760" width="80" height="120"/>
    <rect x="720" y="760" width="80" height="120"/>
    <rect x="840" y="760" width="80" height="120"/>
    <rect x="960" y="760" width="80" height="120"/>
    <rect x="1080" y="760" width="120" height="120"/>
  </g>
</svg>
